<svg xmlns="http://www.w3.org/2000/svg" xmlns:xlink="http://www.w3.org/1999/xlink" x="0px" y="0px" viewBox="0 0 14.8 22.7" style="enable-background:new 0 0 14.8 22.7; fill:#ec008c;" xml:space="preserve"> <g> <g> <path d="M7.4,18.7c-0.1,0-0.3-0.1-0.3-0.2L1.9,9.4C0.2,6.5,1.1,2.8,4,1l0.1,0c2-1.3,4.6-1.3,6.6,0L10.8,1c2.9,1.8,3.8,5.5,2.1,8.4 l-5.2,9.1C7.6,18.6,7.5,18.7,7.4,18.7z M7.4,0.7c-1,0-2,0.3-2.9,0.8l-0.1,0C1.9,3.2,1,6.5,2.5,9l4.9,8.5L12.2,9 c1.5-2.6,0.7-5.8-1.9-7.4l-0.1-0.1C9.4,1,8.4,0.7,7.4,0.7z"></path> </g> <g> <path d="M7.4,8.7C6.1,8.7,5,7.6,5,6.3s1.1-2.4,2.4-2.4S9.8,5,9.8,6.3S8.7,8.7,7.4,8.7z M7.4,4.7c-0.9,0-1.6,0.7-1.6,1.6 s0.7,1.6,1.6,1.6S9,7.2,9,6.3S8.3,4.7,7.4,4.7z"></path> </g> <g> <path d="M7.4,22.7c-4.1,0-7.4-1.5-7.4-3.4c0-1.7,2.6-3.1,6.2-3.3l0.1,0.7c-3.1,0.2-5.5,1.3-5.5,2.6c0,1.3,2.7,2.6,6.6,2.6 s6.6-1.4,6.6-2.6c0-1.2-2.4-2.4-5.5-2.6L8.5,16c3.7,0.3,6.2,1.6,6.2,3.3C14.8,21.2,11.5,22.7,7.4,22.7z"></path> </g> </g> </svg>