<svg xmlns="http://www.w3.org/2000/svg" xmlns:xlink="http://www.w3.org/1999/xlink" x="0px" y="0px" viewBox="0 0 22.8 22.7" style="enable-background:new 0 0 22.8 22.7; fill:#ec008c;" xml:space="preserve"><g><g><path d="M22.4,22.7h-22c-0.2,0-0.4-0.2-0.4-0.4v-14C0,8.2,0.2,8,0.4,8h22c0.2,0,0.4,0.2,0.4,0.4v14C22.8,22.6,22.6,22.7,22.4,22.7 z M0.8,22H22V8.7H0.8V22z"></path></g><g><path d="M11.4,15.7c-0.1,0-0.2-0.1-0.3-0.2c-0.1-0.2-0.1-0.4,0.1-0.5l11-7c0.2-0.1,0.4-0.1,0.5,0.1s0.1,0.4-0.1,0.5l-11,7 C11.5,15.7,11.4,15.7,11.4,15.7z"></path></g><g><path d="M11.4,15.7c-0.1,0-0.1,0-0.2-0.1l-11-7C0,8.6-0.1,8.3,0.1,8.2C0.2,8,0.4,7.9,0.6,8.1l11,7c0.2,0.1,0.2,0.3,0.1,0.5 C11.6,15.7,11.5,15.7,11.4,15.7z"></path></g><g><path d="M0.4,8.7c-0.1,0-0.2-0.1-0.3-0.2C0,8.4,0,8.2,0.2,8.1l11-8C11.3,0,11.6,0,11.7,0.2c0.1,0.2,0.1,0.4-0.1,0.5l-11,8 C0.5,8.7,0.5,8.7,0.4,8.7z"></path></g><g><path d="M22.4,8.7c-0.1,0-0.2,0-0.2-0.1l-11-8C11,0.6,11,0.3,11.1,0.2C11.2,0,11.4,0,11.6,0.1l11,8c0.2,0.1,0.2,0.4,0.1,0.5 C22.6,8.7,22.5,8.7,22.4,8.7z"></path></g></g></svg>