<svg xmlns="http://www.w3.org/2000/svg" xmlns:xlink="http://www.w3.org/1999/xlink" x="0px" y="0px" viewBox="0 0 22 22" style="enable-background:new 0 0 22 22; fill:#ec008c;" xml:space="preserve"><style type="text/css"> .st0{fill:none;stroke:#000000;stroke-width:0.75;stroke-linecap:round;stroke-linejoin:round;stroke-miterlimit:10;} </style><g><g><path class="st0" d="M11,11"></path></g><g><g><path d="M16.8,22c-1.3,0-2.9-0.4-4.6-1.3c-2.1-1-4.3-2.7-6.3-4.7c-2-2-3.6-4.2-4.7-6.3C-0.3,6.5-0.4,3.9,1,2.4 c0.1-0.1,0.4-0.1,0.5,0c0.1,0.1,0.1,0.4,0,0.5c-1.2,1.2-1,3.6,0.4,6.5c1,2.1,2.6,4.2,4.5,6.1c1.9,1.9,4.1,3.5,6.1,4.5 c2.9,1.4,5.3,1.6,6.5,0.4c0.1-0.1,0.4-0.1,0.5,0s0.1,0.4,0,0.5C18.9,21.7,18,22,16.8,22z"></path></g><g><path d="M6.5,9.5c-0.1,0-0.3-0.1-0.3-0.2c-0.1-0.2,0-0.4,0.2-0.5l2.3-1.1c0.8-0.4,1.2-1.2,1.1-1.9C9.7,5.3,9.5,4.9,9.2,4.6 L5.9,1.3C5.4,0.8,4.7,0.6,4,0.8C3.7,0.9,3.4,1.1,3.2,1.3L1.5,3C1.4,3.1,1.2,3.1,1,3C0.9,2.8,0.9,2.6,1,2.4l1.6-1.6 C3,0.5,3.4,0.2,3.8,0.1c1-0.3,2,0,2.7,0.7l3.3,3.3c0.4,0.4,0.7,0.9,0.8,1.5C10.7,6.6,10,7.8,9,8.3L6.7,9.4 C6.7,9.4,6.6,9.5,6.5,9.5z"></path></g><g><path d="M19.3,21.1c-0.1,0-0.2,0-0.3-0.1c-0.1-0.1-0.1-0.4,0-0.5l1.6-1.6c0.2-0.2,0.4-0.5,0.5-0.8c0.2-0.7,0-1.4-0.5-1.9 l-3.3-3.3c-0.3-0.3-0.7-0.5-1.1-0.5c-0.8-0.1-1.6,0.3-1.9,1.1l-1.1,2.3c-0.1,0.2-0.3,0.3-0.5,0.2s-0.3-0.3-0.2-0.5l1.1-2.3 c0.5-1.1,1.6-1.7,2.7-1.5c0.6,0.1,1.1,0.3,1.5,0.8l3.3,3.3c0.7,0.7,1,1.7,0.7,2.7c-0.1,0.4-0.4,0.8-0.7,1.1L19.6,21 C19.5,21.1,19.4,21.1,19.3,21.1z"></path></g><g><path d="M12.9,15.8c-0.1,0-0.2,0-0.2-0.1c-1.2-0.8-2.4-1.8-3.5-3s-2.1-2.3-3-3.5C6.1,9.1,6.2,8.9,6.3,8.8 c0.2-0.1,0.4-0.1,0.5,0.1c0.8,1.2,1.8,2.3,2.9,3.4s2.2,2.1,3.4,2.9c0.2,0.1,0.2,0.4,0.1,0.5C13.2,15.8,13,15.8,12.9,15.8z"></path></g></g></g></svg>