<svg xmlns="http://www.w3.org/2000/svg" xmlns:xlink="http://www.w3.org/1999/xlink" x="0px" y="0px" viewBox="0 0 22.8 22.8" style="enable-background:new 0 0 22.8 22.8; fill:#ec008c;" xml:space="preserve"><g><g><path d="M3.4,14.8c-1.9,0-3.4-1.5-3.4-3.4S1.5,8,3.4,8s3.4,1.5,3.4,3.4S5.2,14.8,3.4,14.8z M3.4,8.8c-1.4,0-2.6,1.2-2.6,2.6 S1.9,14,3.4,14S6,12.8,6,11.4S4.8,8.8,3.4,8.8z"></path></g><g><path d="M19.4,6.8c-1.9,0-3.4-1.5-3.4-3.4S17.5,0,19.4,0s3.4,1.5,3.4,3.4S21.2,6.8,19.4,6.8z M19.4,0.8c-1.4,0-2.6,1.2-2.6,2.6 S17.9,6,19.4,6S22,4.8,22,3.4S20.8,0.8,19.4,0.8z"></path></g><g><path d="M19.4,22.8c-1.9,0-3.4-1.5-3.4-3.4s1.5-3.4,3.4-3.4s3.4,1.5,3.4,3.4S21.2,22.8,19.4,22.8z M19.4,16.8 c-1.4,0-2.6,1.2-2.6,2.6s1.2,2.6,2.6,2.6s2.6-1.2,2.6-2.6S20.8,16.8,19.4,16.8z"></path></g><g><polygon points="16.5,18.4 5.9,13 6.2,12.4 16.9,17.7 "></polygon></g><g><polygon points="6.2,10.4 5.9,9.7 16.5,4.4 16.9,5 "></polygon></g></g></svg>